<svg width="390" height="237" viewBox="0 0 390 237" fill="none" xmlns="http://www.w3.org/2000/svg">
<path fill-rule="evenodd" clip-rule="evenodd" d="M198.949 0V18.6142H205.797V91.0501H214.793V68.7429H219.53V63.3547L229.894 68.7429H232.432V55.3423L244.832 35.9197L257.231 55.3423V100.913H263.051V109.769H271.639V73.6263H278.757L278.461 58.63H286.697V54.3349H295.043L296.327 28.3619L297.611 54.3349H299.216V58.63H301.382L300.588 98.7916H302.126V81.0731L319.381 68.7429V91.0501H336.637V73.6263H347.289V63.3547L365.536 78.9431V63.3547L390 84.2553V237H371.754H365.536H348.066H347.289H336.637H319.381H302.126H298.549H283.069H281.294H272.638H271.639H257.231H247.839H232.432H214.793H205.797H190.551H184.034H168.746H164.601H150.562H142.918H130.57H126.097H119.729H108.888H106.105H95.264H89.4137H84.4225H64.95H56.8821H46.3889H35.8943H27.8154H25.4011H13.6805H10.5599H0V88.1382H8.30994L7.72739 58.63H25.4011V15.9155H35.8943V24.9953H46.3889V33.3083H56.8821V76.167H64.95V56.2403H67.8226V54.0427H86.5404V56.2403H89.4137V97.7911H95.264V44.3898H98.1379V42.1922H116.855V44.3898H119.729V75.1407H126.097V56.2403H128.97V54.0427H147.688V56.2403H150.562V63.3547L156.568 71.1819V84.3047H164.601V76.167H168.746V56.2403H184.034V44.443L190.551 37.7142V18.6142H197.4V0H198.949Z" fill="#00C9B8" fill-opacity="0.15"/>
<path fill-rule="evenodd" clip-rule="evenodd" d="M277.975 102V112.603H274.119V153.864H269.054V141.157H266.386V138.088L260.551 141.157H259.121V133.524L252.139 122.461L245.158 133.524V159.482H241.88V164.527H237.044V143.939H233.036L233.203 135.397H228.565V132.95H223.866L223.143 118.156L222.42 132.95H221.516V135.397H220.297L220.744 158.274H219.878V148.181L210.162 141.157V153.864H200.445V143.939H194.447V138.088L184.173 146.968V138.088L170.397 149.994V237H180.671H184.173H194.009H194.447H200.445H210.162H219.878H221.892H230.608H231.608H236.482H237.044H245.158H250.446H259.121H269.054H274.119H282.704H286.374H294.982H297.316H305.221H309.525H316.478H318.997H322.583H328.687H330.254H336.358H339.653H342.463H353.428H357.971H363.879H369.789H374.338H375.697H382.297H384.054H390V152.205H385.321L385.649 135.397H375.697V111.066H369.789V116.238H363.879V120.973H357.971V145.386H353.428V134.036H351.81V132.784H341.271V134.036H339.653V157.704H336.358V127.285H334.74V126.034H324.201V127.285H322.583V144.802H318.997V134.036H317.379V132.784H306.84V134.036H305.221V138.088L301.839 142.547V150.022H297.316V145.386H294.982V134.036H286.374V127.316L282.704 123.483V112.603H278.847V102H277.975Z" fill="#00C9B8" fill-opacity="0.15"/>
<path fill-rule="evenodd" clip-rule="evenodd" d="M83.4732 102V112.603H80.481V153.864H76.5508V141.157H74.4809V138.088L69.9531 141.157H68.8439V133.524L63.4263 122.461L58.0091 133.524V159.482H55.466V164.527H51.7137V143.939H48.6038L48.7334 135.397H45.1346V132.95H41.4883L40.9272 118.156L40.3664 132.95H39.665V135.397H38.7187L39.0654 158.274H38.3938V148.181L30.8546 141.157V153.864H23.3151V143.939H18.6611V138.088L10.6889 146.968V138.088L3.05176e-05 149.994V237H170.397V152.205H166.766L167.021 135.397H159.299V111.066H154.714V116.238H150.129V120.973H145.545V145.386H142.02V134.036H140.764V132.784H132.586V134.036H131.331V157.704H128.775V127.285H127.519V126.034H119.341V127.285H118.086V144.802H115.303V134.036H114.048V132.784H105.87V134.036H104.614V138.088L101.99 142.547V150.022H98.4806V145.386H96.6695V134.036H89.99V127.316L87.1424 123.483V112.603H84.1499V102H83.4732Z" fill="#00C9B8" fill-opacity="0.15"/>
</svg>
