<svg width="375" height="237" viewBox="0 0 375 237" fill="none" xmlns="http://www.w3.org/2000/svg">
<path fill-rule="evenodd" clip-rule="evenodd" d="M191.297 0V18.6142H197.882V91.0501H206.532V68.7429H211.087V63.3547L221.052 68.7429H223.493V55.3423L235.415 35.9197L247.337 55.3423V100.913H252.934V109.769H261.192V73.6263H268.036L267.751 58.63H275.671V54.3349H283.695L284.93 28.3619L286.164 54.3349H287.708V58.63H289.79L289.027 98.7916H290.505V81.0731L307.097 68.7429V91.0501H323.69V73.6263H333.932V63.3547L351.477 78.9431V63.3547L375 84.2553V237H357.456H351.477H334.679H333.932H323.69H307.097H290.505H287.067H272.182H270.475H262.151H261.192H247.337H238.307H223.493H206.532H197.882H183.222H176.955H162.256H158.27H144.771H137.421H125.549H121.247H115.124H104.7H102.024H91.6H85.9747H81.1754H62.4519H54.6944H44.6047H34.5138H26.7456H24.4241H13.1544H10.1538H0V88.1382H7.99036L7.43021 58.63H24.4241V15.9155H34.5138V24.9953H44.6047V33.3083H54.6944V76.167H62.4519V56.2403H65.2141V54.0427H83.2119V56.2403H85.9747V97.7911H91.6V44.3898H94.3634V42.1922H112.361V44.3898H115.124V75.1407H121.247V56.2403H124.01V54.0427H142.007V56.2403H144.771V63.3547L150.546 71.1819V84.3047H158.27V76.167H162.256V56.2403H176.955V44.443L183.222 37.7142V18.6142H189.808V0H191.297Z" fill="white" fill-opacity="0.2"/>
<path fill-rule="evenodd" clip-rule="evenodd" d="M267.284 102V112.603H263.576V153.864H258.705V141.157H256.14V138.088L250.529 141.157H249.155V133.524L242.441 122.461L235.728 133.524V159.482H232.577V164.527H227.927V143.939H224.073L224.234 135.397H219.774V132.95H215.256L214.56 118.156L213.866 132.95H212.996V135.397H211.824L212.253 158.274H211.421V148.181L202.078 141.157V153.864H192.735V143.939H186.968V138.088L177.089 146.968V138.088L163.843 149.994V237H173.722H177.089H186.547H186.968H192.735H202.078H211.421H213.357H221.739H222.7H227.387H227.927H235.728H240.813H249.155H258.705H263.576H271.83H275.359H283.636H285.881H293.482H297.62H304.306H306.728H310.175H316.045H317.552H323.422H326.589H329.291H339.834H344.202H349.884H355.566H359.94H361.247H367.593H369.283H375V152.205H370.501L370.816 135.397H361.247V111.066H355.566V116.238H349.884V120.973H344.202V145.386H339.834V134.036H338.279V132.784H328.145V134.036H326.589V157.704H323.422V127.285H321.865V126.034H311.732V127.285H310.175V144.802H306.728V134.036H305.172V132.784H295.038V134.036H293.482V138.088L290.23 142.547V150.022H285.881V145.386H283.636V134.036H275.359V127.316L271.83 123.483V112.603H268.122V102H267.284Z" fill="white" fill-opacity="0.2"/>
<path fill-rule="evenodd" clip-rule="evenodd" d="M80.2626 102V112.603H77.3856V153.864H73.6065V141.157H71.6162V138.088L67.2625 141.157H66.196V133.524L60.9868 122.461L55.7779 133.524V159.482H53.3327V164.527H49.7246V143.939H46.7344L46.859 135.397H43.3986V132.95H39.8925L39.353 118.156L38.8138 132.95H38.1394V135.397H37.2295L37.5629 158.274H36.917V148.181L29.6678 141.157V153.864H22.4183V143.939H17.9433V138.088L10.2778 146.968V138.088L-1.52588e-05 149.994V237H163.843V152.205H160.352L160.597 135.397H153.172V111.066H148.764V116.238H144.355V120.973H139.947V145.386H136.557V134.036H135.35V132.784H127.487V134.036H126.28V157.704H123.822V127.285H122.615V126.034H114.751V127.285H113.544V144.802H110.869V134.036H109.662V132.784H101.798V134.036H100.591V138.088L98.0673 142.547V150.022H94.6929V145.386H92.9514V134.036H86.5288V127.316L83.7907 123.483V112.603H80.9134V102H80.2626Z" fill="white" fill-opacity="0.2"/>
</svg>
