<svg width="22" height="22" viewBox="0 0 22 22" fill="none" xmlns="http://www.w3.org/2000/svg">
<path d="M11 0.25C16.9371 0.25 21.75 5.06294 21.75 11C21.75 16.9371 16.9371 21.75 11 21.75C9.28635 21.75 7.80387 21.3104 6.43164 20.6025C6.07498 20.4186 5.69327 20.3746 5.36328 20.4736L2.99414 21.1846C1.65933 21.5849 0.415092 20.3407 0.81543 19.0059L1.52637 16.6367C1.62536 16.3067 1.58144 15.925 1.39746 15.5684C0.689637 14.1961 0.25 12.7137 0.25 11C0.25 5.06294 5.06294 0.25 11 0.25ZM11 1.75C5.89137 1.75 1.75 5.89137 1.75 11C1.75 12.438 2.11427 13.6863 2.73047 14.8809C3.06569 15.5307 3.18926 16.3126 2.96289 17.0674L2.25195 19.4365C2.19474 19.6272 2.37277 19.8053 2.56348 19.748L4.93262 19.0371C5.68741 18.8107 6.46928 18.9343 7.11914 19.2695C8.31371 19.8857 9.56201 20.25 11 20.25C16.1086 20.25 20.25 16.1086 20.25 11C20.25 5.89137 16.1086 1.75 11 1.75ZM11 14.25C11.4142 14.25 11.75 14.5858 11.75 15V15.5C11.75 15.9142 11.4142 16.25 11 16.25C10.5858 16.25 10.25 15.9142 10.25 15.5V15C10.25 14.5858 10.5858 14.25 11 14.25ZM11 5.75C12.4388 5.75 13.75 6.84722 13.75 8.41895C13.75 8.94585 13.594 9.461 13.3018 9.89941L11.75 12.2275V12.5C11.75 12.9142 11.4142 13.25 11 13.25C10.5858 13.25 10.25 12.9142 10.25 12.5V12C10.25 11.8519 10.2938 11.7072 10.376 11.584L12.0537 9.06738C12.1817 8.87537 12.25 8.64972 12.25 8.41895C12.25 7.77226 11.7104 7.25 11 7.25C10.3096 7.25 9.75 7.80964 9.75 8.5C9.75 8.91421 9.41421 9.25 9 9.25C8.58579 9.25 8.25 8.91421 8.25 8.5C8.25 6.98122 9.48122 5.75 11 5.75Z" fill="#00C9B8"/>
</svg>
