<svg width="22" height="20" viewBox="0 0 22 20" fill="none" xmlns="http://www.w3.org/2000/svg">
<path d="M10.75 0C14.8053 0 18.3045 2.76277 18.4902 6.44238C18.6886 6.51316 18.8807 6.60687 19.0605 6.72656L20.7197 7.83203C21.207 8.15647 21.4999 8.70272 21.5 9.28809V12.2168C21.5 12.8023 21.2071 13.3493 20.7197 13.6738L19.0605 14.7783C18.8836 14.8961 18.695 14.9891 18.5 15.0596V16.75C18.5 18.2688 17.2688 19.5 15.75 19.5H10.75C10.3358 19.5 10 19.1642 10 18.75C10 18.3358 10.3358 18 10.75 18H15.75C16.4404 18 17 17.4404 17 16.75V15.1416C16.8102 15.0958 16.6232 15.0298 16.4443 14.9404C15.5592 14.4979 15 13.5931 15 12.6035V8.90137C15.0002 7.91181 15.5592 7.00692 16.4443 6.56445C16.6172 6.47807 16.7973 6.41288 16.9805 6.36719C16.7486 3.73457 14.1506 1.5 10.75 1.5C7.34938 1.5 4.75038 3.73454 4.51855 6.36719C4.70202 6.41288 4.88253 6.47792 5.05566 6.56445C5.9408 7.00692 6.49984 7.91181 6.5 8.90137V12.6035C6.5 13.5931 5.94079 14.4979 5.05566 14.9404C4.21764 15.3593 3.21929 15.2975 2.43945 14.7783L0.780273 13.6738C0.292916 13.3493 0 12.8023 0 12.2168V9.28809C7.90729e-05 8.70272 0.29304 8.15647 0.780273 7.83203L2.43945 6.72656C2.61902 6.60705 2.81071 6.51313 3.00879 6.44238C3.19448 2.76275 6.6947 0 10.75 0ZM4.38477 7.90625C4.02787 7.7279 3.60261 7.75447 3.27051 7.97559L1.61133 9.08008C1.54178 9.12639 1.50008 9.20454 1.5 9.28809V12.2168C1.5 12.3003 1.54189 12.3784 1.61133 12.4248L3.27051 13.5303C3.60262 13.7513 4.02789 13.777 4.38477 13.5986C4.76172 13.4101 5 13.025 5 12.6035V8.90137C4.99984 8.47999 4.76171 8.09464 4.38477 7.90625ZM18.2295 7.97559C17.8974 7.75447 17.4721 7.7279 17.1152 7.90625C16.7383 8.09464 16.5002 8.47999 16.5 8.90137V12.6035C16.5 13.025 16.7383 13.4101 17.1152 13.5986C17.4721 13.777 17.8974 13.7513 18.2295 13.5303L19.8887 12.4248C19.9581 12.3784 20 12.3003 20 12.2168V9.28809C19.9999 9.20454 19.9582 9.12639 19.8887 9.08008L18.2295 7.97559Z" fill="#161616"/>
</svg>
