<svg width="22" height="22" viewBox="0 0 22 22" fill="none" xmlns="http://www.w3.org/2000/svg">
<path d="M11.0576 0.75C13.2479 0.749987 14.9683 0.750117 16.3115 0.930664C17.6882 1.11575 18.7805 1.50313 19.6387 2.36133C20.4969 3.21953 20.8842 4.31182 21.0693 5.68848C21.2499 7.03174 21.25 8.75213 21.25 10.9424V11.0576C21.25 13.2479 21.2499 14.9683 21.0693 16.3115C20.8842 17.6882 20.4969 18.7805 19.6387 19.6387C18.7805 20.4969 17.6882 20.8842 16.3115 21.0693C14.9683 21.2499 13.2479 21.25 11.0576 21.25H10.9424C8.75213 21.25 7.03174 21.2499 5.68848 21.0693C4.31182 20.8842 3.21953 20.4969 2.36133 19.6387C1.50313 18.7805 1.11575 17.6882 0.930664 16.3115C0.750117 14.9683 0.749987 13.2479 0.75 11.0576V10.9424C0.749987 8.75213 0.750117 7.03174 0.930664 5.68848C1.11575 4.31182 1.50313 3.21953 2.36133 2.36133C3.21953 1.50313 4.31182 1.11575 5.68848 0.930664C7.03174 0.750117 8.75213 0.749987 10.9424 0.75H11.0576ZM11 2.25C8.73963 2.25 7.1196 2.25137 5.8877 2.41699C4.67747 2.57972 3.9549 2.88886 3.42188 3.42188C2.88886 3.9549 2.57972 4.67747 2.41699 5.8877C2.25137 7.1196 2.25 8.73963 2.25 11C2.25 13.2604 2.25137 14.8804 2.41699 16.1123C2.57972 17.3225 2.88885 18.0451 3.42188 18.5781C3.9549 19.1111 4.67747 19.4203 5.8877 19.583C7.1196 19.7486 8.73963 19.75 11 19.75C13.2604 19.75 14.8804 19.7486 16.1123 19.583C17.3225 19.4203 18.0451 19.1111 18.5781 18.5781C19.1111 18.0451 19.4203 17.3225 19.583 16.1123C19.7486 14.8804 19.75 13.2604 19.75 11C19.75 8.73963 19.7486 7.1196 19.583 5.8877C19.4203 4.67747 19.1111 3.9549 18.5781 3.42188C18.0451 2.88885 17.3225 2.57972 16.1123 2.41699C14.8804 2.25137 13.2604 2.25 11 2.25ZM10.5 5.25C10.9142 5.25 11.25 5.58579 11.25 6V6.62891H16C16.4141 6.62891 16.7498 6.96488 16.75 7.37891C16.75 7.79312 16.4142 8.12891 16 8.12891H14.0537C13.5145 9.72966 12.6125 11.2286 11.5986 12.5645L13.0762 14.1006C13.3633 14.3991 13.3541 14.874 13.0557 15.1611C12.7571 15.4483 12.2823 15.4391 11.9951 15.1406L10.6475 13.7393C9.72762 14.8079 8.76355 15.758 7.90039 16.5518C7.59552 16.8321 7.1212 16.8126 6.84082 16.5078C6.56057 16.203 6.58024 15.7287 6.88477 15.4482C7.76141 14.6421 8.72982 13.6832 9.63574 12.6143C9.40725 12.3273 9.17073 12.0162 8.9541 11.7158C8.61732 11.2488 8.28875 10.7553 8.12695 10.4082C7.95198 10.0328 8.11484 9.58614 8.49023 9.41113C8.86567 9.23615 9.31232 9.39898 9.4873 9.77441C9.5828 9.9791 9.83307 10.3704 10.1709 10.8389C10.3064 11.0268 10.4494 11.2193 10.5928 11.4053C11.355 10.368 12.0108 9.26506 12.457 8.12891H6C5.58579 8.12891 5.25 7.79312 5.25 7.37891C5.25022 6.96488 5.58592 6.62891 6 6.62891H9.75V6C9.75 5.58579 10.0858 5.25 10.5 5.25Z" fill="#00C9B8"/>
</svg>
