<svg width="20" height="21" viewBox="0 0 20 21" fill="none" xmlns="http://www.w3.org/2000/svg">
<path d="M14.583 9.84375C16.9498 9.84375 18.958 11.8942 18.958 14.4053C18.9579 15.6921 18.4371 16.7633 17.7314 17.6279C17.0311 18.486 16.1274 19.1689 15.2959 19.7031L15.2764 19.7148C15.0648 19.8402 14.8258 19.9062 14.583 19.9062C14.3403 19.9062 14.1012 19.8402 13.8896 19.7148L13.8789 19.709L13.8682 19.7012C13.0411 19.1636 12.1371 18.4834 11.4365 17.6279C10.7301 16.7653 10.2081 15.6962 10.208 14.4053C10.208 11.8943 12.2163 9.84394 14.583 9.84375ZM14.583 11.1562C12.8912 11.1564 11.458 12.6353 11.458 14.4053C11.4581 15.2963 11.8125 16.0725 12.3848 16.7715C12.9594 17.4732 13.7318 18.0681 14.5117 18.5762C14.5336 18.5876 14.558 18.5937 14.583 18.5938C14.6086 18.5938 14.634 18.5871 14.6562 18.5752C15.4354 18.0735 16.2078 17.4774 16.7822 16.7734C17.3546 16.072 17.7079 15.2929 17.708 14.4053C17.708 12.6352 16.275 11.1562 14.583 11.1562ZM6.65625 1.53223C7.07841 1.51776 7.46532 1.61889 7.87793 1.78711C8.27237 1.94793 8.72969 2.18757 9.28711 2.48047L12.0889 3.95312C12.2862 4.0568 12.4073 4.11753 12.4912 4.15625C12.4941 4.15621 12.4971 4.15625 12.5 4.15625C12.607 4.15625 12.7059 4.18758 12.7939 4.2373C12.8851 4.24369 13.0222 4.24609 13.2676 4.24609H15.0439C15.7916 4.24607 16.4173 4.24627 16.9141 4.31836C17.4405 4.3948 17.9142 4.56357 18.293 4.97266C18.6693 5.37912 18.8219 5.88282 18.8916 6.44238C18.9579 6.97522 18.958 7.64754 18.958 8.45801V9.1875C18.958 9.54994 18.6782 9.84375 18.333 9.84375C17.988 9.84356 17.708 9.54982 17.708 9.1875V8.50293C17.708 7.6363 17.7068 7.05007 17.6523 6.6123C17.6 6.19233 17.509 6.00838 17.3975 5.8877C17.2881 5.76956 17.1244 5.67353 16.7432 5.61816C16.3421 5.55993 15.8038 5.55859 15 5.55859H13.2158C13.185 5.55861 13.1547 5.55668 13.125 5.55664V8.3125C13.125 8.67494 12.8452 8.96875 12.5 8.96875C12.1548 8.96875 11.875 8.67494 11.875 8.3125V5.30078C11.7812 5.25465 11.6816 5.20683 11.5762 5.15137C11.561 5.14338 11.5458 5.1351 11.5303 5.12695L8.75391 3.66797C8.164 3.35801 7.75916 3.14569 7.42578 3.00977C7.37918 2.99077 7.33427 2.97532 7.29199 2.95996V14.7178C7.71104 14.7968 8.09571 14.9646 8.43262 15.1387C8.61803 15.2345 8.79854 15.3371 8.96582 15.4326L8.99121 15.4473C9.15256 15.5394 9.30078 15.6237 9.44629 15.7002C9.75497 15.8624 9.88006 16.2569 9.72559 16.5811C9.57105 16.905 9.19533 17.0362 8.88672 16.874C8.72147 16.7872 8.55577 16.6928 8.39941 16.6035L8.36914 16.5859C8.2003 16.4896 8.0405 16.3989 7.88086 16.3164C7.55867 16.1499 7.27275 16.0362 7.00195 15.9971C6.38222 15.9078 5.87594 16.2178 5.09863 16.6943L5.05176 16.7236C4.53626 17.0397 4.1078 17.3024 3.75293 17.4717C3.39396 17.6429 3.00296 17.774 2.59082 17.6963C2.14546 17.6122 1.74641 17.3587 1.46387 16.9883C1.20532 16.6491 1.11908 16.2298 1.08008 15.8115C1.04144 15.3968 1.04198 14.8659 1.04199 14.2236V6.96875C1.04198 6.48311 1.04204 6.07227 1.07324 5.73242C1.10637 5.37206 1.17808 5.03986 1.34961 4.72168C1.52174 4.40248 1.75522 4.16841 2.03223 3.95703C2.29189 3.75889 2.62368 3.55546 3.01367 3.31641C3.02206 3.31126 3.03062 3.30596 3.03906 3.30078L4.08789 2.6582C4.62703 2.32769 5.06905 2.05757 5.45312 1.87012C5.85471 1.67413 6.23428 1.54675 6.65625 1.53223ZM5.97949 3.05957C5.65467 3.21811 5.26372 3.45798 4.69336 3.80762L3.66992 4.43457C3.24753 4.6935 2.97058 4.86462 2.76758 5.01953C2.57635 5.16546 2.49075 5.26758 2.43652 5.36816C2.38183 5.46966 2.34087 5.60305 2.31738 5.8584C2.29264 6.12785 2.29199 6.47517 2.29199 6.99902V14.1885C2.29199 14.8742 2.29225 15.3405 2.32422 15.6836C2.35646 16.0295 2.41295 16.1331 2.43945 16.168C2.53643 16.2951 2.6699 16.3774 2.8125 16.4043C2.84273 16.4099 2.94415 16.4153 3.23535 16.2764C3.52504 16.1382 3.89824 15.9102 4.45117 15.5713C4.49512 15.5443 4.54014 15.5166 4.58594 15.4883C4.99641 15.2342 5.48165 14.934 6.04199 14.7773V3.03125C6.02184 3.04067 6.00056 3.04929 5.97949 3.05957ZM14.5908 13.5625C15.0511 13.5625 15.4238 13.9543 15.4238 14.4375C15.4238 14.9207 15.0511 15.3125 14.5908 15.3125H14.583C14.1229 15.3123 13.75 14.9206 13.75 14.4375C13.75 13.9544 14.1229 13.5627 14.583 13.5625H14.5908Z" fill="#00C9B8"/>
</svg>
