<svg width="99" height="150" viewBox="0 0 99 150" fill="none" xmlns="http://www.w3.org/2000/svg">
<path d="M15.3975 0C15.5997 1.52322e-05 15.8007 0.00767632 16 0.0195312V7C16 7.55216 16.4479 7.9998 17 8C17.5522 7.99987 18 7.5522 18 7V0.34375C19.0835 0.635143 20.095 1.10253 21 1.71582V7C21 7.55216 21.4479 7.9998 22 8C22.5522 7.99987 23 7.5522 23 7V3.50781C24.4933 5.25499 25.3975 7.52144 25.3975 10V47.4053C32.5172 43.5097 40.7551 41.2891 49.5 41.2891C76.1098 41.2891 98.0253 61.8451 98.0254 87.6152C98.0254 101.55 91.1952 112.147 82.9062 121.215C79.0291 125.456 74.7261 129.476 70.5625 133.365C70.2897 133.62 70.0175 133.875 69.7461 134.129C65.2816 138.302 61.006 142.345 57.2949 146.591C53.229 151.243 45.7473 151.086 41.8164 146.412C38.1988 142.11 33.9699 138.079 29.5195 133.953C28.9177 133.395 28.3107 132.835 27.7012 132.272C23.8606 128.725 19.9046 125.072 16.3125 121.239C11.1546 115.736 6.53321 109.645 3.74316 102.46H3.68945V102.321C1.98178 97.8772 0.974615 93.0151 0.974609 87.6152C0.974633 82.2323 1.93396 77.0781 3.68945 72.29V10C3.68946 7.56853 4.55724 5.33973 6 3.60645V11C6 11.5522 6.44788 11.9998 7 12C7.55218 11.9999 8 11.5522 8 11V1.77734C8.9032 1.15124 9.91425 0.670693 11 0.368164V8C11 8.55216 11.4479 8.9998 12 9C12.5522 8.99987 13 8.5522 13 8V0.0253906C13.2278 0.00988117 13.4577 0 13.6895 0H15.3975ZM49.5 68.8311C37.9112 68.8312 28.5169 78.2257 28.5166 89.8145C28.5166 101.403 37.911 110.799 49.5 110.799C61.0891 110.799 70.4844 101.404 70.4844 89.8145C70.4841 78.2256 61.0889 68.8311 49.5 68.8311Z" fill="url(#paint0_linear_6_1403)"/>
<defs>
<linearGradient id="paint0_linear_6_1403" x1="49.5001" y1="0" x2="49.5001" y2="150" gradientUnits="userSpaceOnUse">
<stop offset="0.350962" stop-color="#00C9B8"/>
<stop offset="1" stop-color="#3884FF"/>
</linearGradient>
</defs>
</svg>
