<svg width="216" height="256" viewBox="0 0 216 256" fill="none" xmlns="http://www.w3.org/2000/svg">
<path d="M106.5 0C150.762 0 186.527 36.2247 186.527 80.7646C186.527 106.326 176.334 126.265 156.779 143.595C146.669 152.554 130.174 170.008 119.184 184L129.242 153.157H129.351V126.535C134.498 124.5 138.222 118.34 138.222 111.079V50.0244C138.222 46.4494 135.374 43.5342 131.815 43.5342C128.256 43.5344 125.354 46.3947 125.354 49.9697L125.409 68.7812H122.562V33.7988C122.562 30.2786 119.714 27.3633 116.155 27.3633C112.596 27.3634 109.694 30.2237 109.694 33.7988L109.749 68.7812H106.682V24.2285C106.682 20.6533 103.835 17.7374 100.276 17.7373C96.7168 17.7373 93.8141 20.5977 93.814 24.1729L93.7593 68.8359L90.9126 68.7266C90.9126 68.7266 90.9126 28.7379 90.9126 28.6279C90.9124 25.1079 88.0644 22.1934 84.5054 22.1934C81.1654 22.1936 78.4824 24.6683 78.0991 27.8584C78.0991 27.9536 78.0444 74.8867 78.0444 74.8867L77.9897 85.5576C93.5952 85.7226 106.243 96.2829 106.244 109.264H103.068C103.068 97.9881 91.7337 88.8022 77.771 88.7471L77.6069 88.582L56.0327 65.7012C53.1854 62.786 48.4758 62.8407 45.6284 65.7559C43.2192 68.176 42.7818 71.9161 44.3149 74.4463C44.3341 74.4757 62.8782 102.994 64.4653 105.358C66.327 112.069 72.1852 118.89 80.6177 123.235C81.9866 123.95 83.4109 124.555 84.7798 125.05V153.157L93.6929 183.489C82.9025 169.6 66.3514 152.572 56.2212 143.595C36.6657 126.265 26.4731 106.326 26.4731 80.7646C26.4733 36.2248 62.2374 0.000215548 106.5 0Z" fill="white"/>
<path d="M25.8254 231.024C25.8254 234.024 25.1174 236.724 23.7014 239.124C22.2854 241.524 20.3654 243.348 17.9414 244.596L23.0894 250.752H18.8414L14.7734 245.784C13.6214 246.096 12.3614 246.252 10.9934 246.252C8.90538 246.252 7.06938 245.82 5.48538 244.956C3.90138 244.068 2.66538 242.832 1.77738 241.248C0.913375 239.664 0.481375 237.852 0.481375 235.812C0.481375 232.98 1.11738 230.412 2.38938 228.108C3.68538 225.78 5.46138 223.956 7.71738 222.636C9.97338 221.292 12.4934 220.62 15.2774 220.62C17.3894 220.62 19.2374 221.064 20.8214 221.952C22.4294 222.816 23.6654 224.04 24.5294 225.624C25.3934 227.184 25.8254 228.984 25.8254 231.024ZM3.86538 235.596C3.86538 237.972 4.53738 239.856 5.88138 241.248C7.24938 242.616 9.10938 243.3 11.4614 243.3C13.5734 243.3 15.4574 242.76 17.1134 241.68C18.7934 240.576 20.1014 239.1 21.0374 237.252C21.9734 235.404 22.4414 233.4 22.4414 231.24C22.4414 228.864 21.7574 226.992 20.3894 225.624C19.0214 224.256 17.1614 223.572 14.8094 223.572C12.6974 223.572 10.8014 224.124 9.12138 225.228C7.46538 226.308 6.16938 227.772 5.23338 229.62C4.32138 231.444 3.86538 233.436 3.86538 235.596ZM48.9045 226.272L45.4125 246H42.1365L42.6405 243.12C41.8485 244.128 40.8405 244.908 39.6165 245.46C38.3925 246.012 37.1205 246.288 35.8005 246.288C33.7365 246.288 32.0805 245.736 30.8325 244.632C29.6085 243.504 28.9965 241.896 28.9965 239.808C28.9965 239.28 29.0565 238.62 29.1765 237.828L31.2285 226.272H34.4685L32.5245 237.396C32.4285 237.9 32.3805 238.428 32.3805 238.98C32.3805 240.444 32.7765 241.56 33.5685 242.328C34.3845 243.072 35.5125 243.444 36.9525 243.444C38.6805 243.444 40.1445 242.904 41.3445 241.824C42.5685 240.744 43.3485 239.172 43.6845 237.108V237.216L45.6285 226.272H48.9045ZM56.6678 223.068C56.1398 223.068 55.6958 222.9 55.3358 222.564C54.9998 222.204 54.8318 221.76 54.8318 221.232C54.8318 220.512 55.0958 219.9 55.6238 219.396C56.1518 218.868 56.7638 218.604 57.4598 218.604C58.0118 218.604 58.4558 218.772 58.7918 219.108C59.1278 219.444 59.2958 219.888 59.2958 220.44C59.2958 221.16 59.0318 221.784 58.5038 222.312C57.9758 222.816 57.3638 223.068 56.6678 223.068ZM57.7118 226.272L54.2198 246H50.9438L54.4358 226.272H57.7118ZM60.3072 236.1C60.6672 234.06 61.3872 232.284 62.4672 230.772C63.5712 229.236 64.9272 228.048 66.5352 227.208C68.1432 226.368 69.8832 225.948 71.7552 225.948C74.1792 225.948 76.0632 226.536 77.4072 227.712C78.7752 228.888 79.5312 230.52 79.6752 232.608H76.1472C76.0272 231.408 75.5352 230.46 74.6712 229.764C73.8312 229.068 72.6912 228.72 71.2512 228.72C69.3792 228.72 67.7472 229.368 66.3552 230.664C64.9872 231.936 64.0992 233.748 63.6912 236.1C63.5712 236.892 63.5112 237.552 63.5112 238.08C63.5112 239.832 63.9792 241.188 64.9152 242.148C65.8512 243.084 67.0992 243.552 68.6592 243.552C70.0992 243.552 71.3472 243.216 72.4032 242.544C73.4832 241.872 74.3112 240.912 74.8872 239.664H78.4152C77.5512 241.68 76.2192 243.3 74.4192 244.524C72.6192 245.724 70.5312 246.324 68.1552 246.324C65.6832 246.324 63.7152 245.616 62.2512 244.2C60.8112 242.784 60.0912 240.852 60.0912 238.404C60.0912 237.66 60.1632 236.892 60.3072 236.1ZM89.5904 236.136L97.1504 246H92.6864L86.4944 237.324L84.9464 246H81.6704L86.3864 219.36H89.6624L86.8904 234.984L96.0344 226.272H100.57L89.5904 236.136ZM124.474 217.92C127.38 217.92 129.594 218.587 131.114 219.92C132.634 221.227 133.394 222.933 133.394 225.04C133.394 225.653 133.34 226.227 133.234 226.76C132.914 228.627 132.1 230.293 130.794 231.76C129.487 233.227 127.74 234.267 125.554 234.88L130.074 246H122.354L118.394 235.4H116.754L114.874 246H108.034L112.994 217.92H124.474ZM126.234 227.04C126.287 226.613 126.314 226.333 126.314 226.2C126.314 225.347 126.034 224.693 125.474 224.24C124.94 223.76 124.14 223.52 123.074 223.52H118.834L117.594 230.56H121.834C123.087 230.56 124.074 230.253 124.794 229.64C125.54 229.027 126.02 228.16 126.234 227.04ZM141.928 221.36C140.861 221.36 140.008 221.08 139.368 220.52C138.754 219.933 138.448 219.2 138.448 218.32C138.448 217.12 138.914 216.093 139.848 215.24C140.781 214.387 141.914 213.96 143.248 213.96C144.314 213.96 145.154 214.253 145.768 214.84C146.381 215.4 146.688 216.133 146.688 217.04C146.688 218.213 146.221 219.227 145.288 220.08C144.354 220.933 143.234 221.36 141.928 221.36ZM144.888 223.68L140.968 246H134.128L138.048 223.68H144.888ZM146.564 234.8C146.964 232.507 147.751 230.493 148.924 228.76C150.098 227.027 151.511 225.693 153.164 224.76C154.818 223.827 156.564 223.36 158.404 223.36C159.871 223.36 161.151 223.667 162.244 224.28C163.364 224.893 164.178 225.72 164.684 226.76L166.524 216.4H173.364L168.124 246H161.284L161.844 242.8C160.991 243.867 159.924 244.72 158.644 245.36C157.364 246 155.938 246.32 154.364 246.32C152.791 246.32 151.391 245.96 150.164 245.24C148.964 244.52 148.018 243.493 147.324 242.16C146.658 240.827 146.324 239.267 146.324 237.48C146.324 236.653 146.404 235.76 146.564 234.8ZM163.284 234.84C163.364 234.36 163.404 233.92 163.404 233.52C163.404 232.213 163.018 231.187 162.244 230.44C161.498 229.693 160.538 229.32 159.364 229.32C158.004 229.32 156.764 229.813 155.644 230.8C154.524 231.76 153.818 233.093 153.524 234.8C153.444 235.28 153.404 235.72 153.404 236.12C153.404 237.427 153.778 238.467 154.524 239.24C155.298 239.987 156.258 240.36 157.404 240.36C158.764 240.36 160.004 239.867 161.124 238.88C162.244 237.893 162.964 236.547 163.284 234.84ZM186.993 223.36C189.873 223.36 192.153 224.147 193.833 225.72C195.539 227.267 196.393 229.387 196.393 232.08C196.393 232.96 196.326 233.747 196.193 234.44C196.086 235.053 195.926 235.707 195.713 236.4H180.233C180.206 236.56 180.193 236.813 180.193 237.16C180.193 238.333 180.513 239.227 181.153 239.84C181.793 240.453 182.646 240.76 183.713 240.76C185.419 240.76 186.726 240.04 187.633 238.6H194.913C193.953 240.867 192.393 242.72 190.233 244.16C188.073 245.6 185.646 246.32 182.953 246.32C180.073 246.32 177.766 245.52 176.033 243.92C174.326 242.32 173.473 240.147 173.473 237.4C173.473 236.573 173.553 235.72 173.713 234.84C174.113 232.52 174.939 230.493 176.193 228.76C177.446 227.027 179.006 225.693 180.873 224.76C182.739 223.827 184.779 223.36 186.993 223.36ZM189.473 232.92C189.526 232.547 189.553 232.293 189.553 232.16C189.553 231.093 189.219 230.28 188.553 229.72C187.886 229.133 187.006 228.84 185.913 228.84C184.739 228.84 183.699 229.2 182.793 229.92C181.913 230.613 181.273 231.613 180.873 232.92H189.473ZM207.761 227.72C208.801 226.387 209.988 225.347 211.321 224.6C212.681 223.827 214.095 223.44 215.561 223.44L214.281 230.68H212.401C210.695 230.68 209.348 231.053 208.361 231.8C207.375 232.52 206.721 233.8 206.401 235.64L204.561 246H197.721L201.641 223.68H208.481L207.761 227.72Z" fill="white"/>
</svg>
