<svg width="227" height="215" viewBox="0 0 227 215" fill="none" xmlns="http://www.w3.org/2000/svg">
<path d="M79.3975 0C79.5997 1.52322e-05 79.8007 0.00767632 80 0.0195312V7C80 7.55216 80.4479 7.9998 81 8C81.5522 7.99987 82 7.5522 82 7V0.34375C83.0835 0.635143 84.095 1.10253 85 1.71582V7C85 7.55216 85.4479 7.9998 86 8C86.5522 7.99987 87 7.5522 87 7V3.50781C88.4933 5.25499 89.3975 7.52144 89.3975 10V47.4053C96.5172 43.5097 104.755 41.2891 113.5 41.2891C140.11 41.2891 162.025 61.8451 162.025 87.6152C162.025 101.55 155.195 112.147 146.906 121.215C143.029 125.456 138.726 129.476 134.562 133.365C134.29 133.62 134.018 133.875 133.746 134.129C129.282 138.302 125.006 142.345 121.295 146.591C117.229 151.243 109.747 151.086 105.816 146.412C102.199 142.11 97.9699 138.079 93.5195 133.953C92.9177 133.395 92.3107 132.835 91.7012 132.272C87.8606 128.725 83.9046 125.072 80.3125 121.239C75.1546 115.736 70.5332 109.645 67.7432 102.46H67.6895V102.321C65.9818 97.8772 64.9746 93.0151 64.9746 87.6152C64.9746 82.2323 65.934 77.0781 67.6895 72.29V10C67.6895 7.56853 68.5572 5.33973 70 3.60645V11C70 11.5522 70.4479 11.9998 71 12C71.5522 11.9999 72 11.5522 72 11V1.77734C72.9032 1.15124 73.9142 0.670693 75 0.368164V8C75 8.55216 75.4479 8.9998 76 9C76.5522 8.99987 77 8.5522 77 8V0.0253906C77.2278 0.00988117 77.4577 0 77.6895 0H79.3975ZM113.5 68.8311C101.911 68.8312 92.5169 78.2257 92.5166 89.8145C92.5166 101.403 101.911 110.799 113.5 110.799C125.089 110.799 134.484 101.404 134.484 89.8145C134.484 78.2256 125.089 68.8311 113.5 68.8311Z" fill="url(#paint0_linear_6_1402)"/>
<path d="M20.2832 178.187C21.4785 178.211 22.5449 178.586 23.4824 179.312C24.4199 180.039 25.1699 180.906 25.7324 181.914C26.3184 182.922 26.752 183.988 27.0332 185.113C27.3145 186.238 27.4551 187.387 27.4551 188.559C27.4551 190.105 27.209 191.629 26.7168 193.129C26.248 194.605 25.4629 195.918 24.3613 197.066C23.2832 198.215 21.9238 198.836 20.2832 198.93H16.2051V201.285C16.0645 202.691 15.291 203.453 13.8848 203.57C13.2285 203.57 12.6543 203.348 12.1621 202.902C11.6934 202.48 11.459 201.941 11.459 201.285V198.93H7.31055C5.66992 198.859 4.29883 198.25 3.19727 197.101C2.0957 195.953 1.31055 194.629 0.841797 193.129C0.396484 191.629 0.173828 190.105 0.173828 188.559C0.173828 187.012 0.408203 185.5 0.876953 184.023C1.3457 182.523 2.11914 181.199 3.19727 180.051C4.29883 178.879 5.66992 178.258 7.31055 178.187H20.2832ZM19.0879 194.219C19.9785 194.172 20.7168 193.844 21.3027 193.234C21.9121 192.601 22.3457 191.875 22.6035 191.055C22.8613 190.234 22.9902 189.402 22.9902 188.559C22.9902 187.715 22.8496 186.894 22.5684 186.098C22.3105 185.277 21.8887 184.551 21.3027 183.918C20.7168 183.285 19.9785 182.945 19.0879 182.898H8.40039C7.50977 182.945 6.77148 183.285 6.18555 183.918C5.59961 184.551 5.16602 185.277 4.88477 186.098C4.62695 186.894 4.49805 187.715 4.49805 188.559C4.49805 189.402 4.62695 190.234 4.88477 191.055C5.14258 191.875 5.56445 192.601 6.15039 193.234C6.75977 193.844 7.50977 194.172 8.40039 194.219H11.459V192.496C11.4824 191.84 11.7285 191.301 12.1973 190.879C12.666 190.434 13.2285 190.211 13.8848 190.211C14.5176 190.234 15.0566 190.469 15.502 190.914C15.9473 191.336 16.1816 191.863 16.2051 192.496V194.219H19.0879ZM42.6074 199.527C41.3887 199.527 40.1816 199.387 38.9863 199.105C37.8145 198.824 36.6895 198.414 35.6113 197.875C34.5332 197.312 33.584 196.574 32.7637 195.66C31.9434 194.746 31.498 193.656 31.4277 192.391V190.914V184.902C31.4277 184.246 31.6621 183.707 32.1309 183.285C32.623 182.84 33.1973 182.617 33.8535 182.617C35.2598 182.734 36.0215 183.496 36.1387 184.902V186.449V191.301C36.1855 192.027 36.4551 192.637 36.9473 193.129C37.4629 193.598 38.0254 193.973 38.6348 194.254C39.2676 194.535 39.9121 194.746 40.5684 194.887C41.248 195.027 41.9277 195.098 42.6074 195.098C43.2871 195.098 43.9551 195.027 44.6113 194.887C45.291 194.746 45.9355 194.535 46.5449 194.254C47.1777 193.973 47.7402 193.598 48.2324 193.129C48.748 192.637 49.0293 192.027 49.0762 191.301V186.449V184.902C49.0762 184.246 49.3105 183.707 49.7793 183.285C50.2715 182.84 50.8457 182.617 51.502 182.617C52.9082 182.734 53.6816 183.496 53.8223 184.902V190.914V192.391C53.752 193.656 53.2949 194.746 52.4512 195.66C51.6309 196.574 50.6816 197.312 49.6035 197.875C48.5254 198.414 47.3887 198.824 46.1934 199.105C45.0215 199.387 43.8262 199.527 42.6074 199.527ZM60.748 182.617C61.3809 182.641 61.9199 182.875 62.3652 183.32C62.8105 183.742 63.0449 184.269 63.0684 184.902V197.066C62.9277 198.473 62.1543 199.234 60.748 199.351C60.0918 199.351 59.5176 199.141 59.0254 198.719C58.5566 198.273 58.3223 197.723 58.3223 197.066V184.902C58.3457 184.246 58.5918 183.707 59.0605 183.285C59.5293 182.84 60.0918 182.617 60.748 182.617ZM57.7949 178.047C57.7949 177.391 58.0762 176.828 58.6387 176.359C59.2012 175.891 59.8809 175.656 60.6777 175.656C61.4746 175.656 62.1543 175.891 62.7168 176.359C63.2793 176.828 63.5605 177.391 63.5605 178.047C63.5605 178.726 63.2793 179.301 62.7168 179.769C62.1543 180.238 61.4746 180.473 60.6777 180.473C59.8809 180.473 59.2012 180.238 58.6387 179.769C58.0762 179.301 57.7949 178.726 57.7949 178.047ZM74.4941 198.93C72.4316 198.859 70.873 198.379 69.8184 197.488C68.7637 196.574 68.002 195.555 67.5332 194.43C67.0645 193.281 66.8301 192.121 66.8301 190.949C66.8301 189.73 67.0527 188.559 67.498 187.434C67.9668 186.285 68.7285 185.266 69.7832 184.375C70.8613 183.461 72.2207 182.992 73.8613 182.969H87.2207C87.877 182.969 88.4277 183.203 88.873 183.672C89.3418 184.117 89.5762 184.668 89.5762 185.324C89.5762 185.98 89.3418 186.543 88.873 187.012C88.4277 187.457 87.877 187.68 87.2207 187.68H73.7207C73.2754 187.68 72.8887 187.867 72.5605 188.242C72.2324 188.594 71.9863 189.016 71.8223 189.508C71.6816 189.976 71.6113 190.445 71.6113 190.914C71.6113 191.406 71.6816 191.898 71.8223 192.391C71.9863 192.859 72.2324 193.281 72.5605 193.656C72.8887 194.008 73.2754 194.195 73.7207 194.219H87.2207C87.877 194.219 88.4277 194.453 88.873 194.922C89.3418 195.367 89.5762 195.918 89.5762 196.574C89.5762 197.23 89.3418 197.781 88.873 198.226C88.4277 198.695 87.877 198.93 87.2207 198.93H74.4941ZM95.6934 177.625C96.3262 177.648 96.8652 177.883 97.3105 178.328C97.7559 178.75 97.9902 179.277 98.0137 179.91V197.137C97.873 198.543 97.0996 199.305 95.6934 199.422C95.0371 199.422 94.4629 199.211 93.9707 198.789C93.502 198.344 93.2676 197.793 93.2676 197.137V179.91C93.291 179.254 93.5371 178.715 94.0059 178.293C94.4746 177.848 95.0371 177.625 95.6934 177.625ZM100.158 187.434C100.838 186.332 102.139 185.523 104.061 185.008L113.096 182.582C113.729 182.394 114.326 182.453 114.889 182.758C115.475 183.039 115.861 183.496 116.049 184.129C116.26 184.738 116.213 185.336 115.908 185.922C115.627 186.484 115.17 186.871 114.537 187.082L104.904 189.578C104.225 189.836 103.896 190.281 103.92 190.914C103.896 191.547 104.225 191.992 104.904 192.25L114.537 194.746C115.17 194.957 115.627 195.355 115.908 195.941C116.213 196.504 116.26 197.09 116.049 197.699C115.861 198.332 115.475 198.789 114.889 199.07C114.326 199.375 113.729 199.434 113.096 199.246L104.061 196.82C102.115 196.281 100.803 195.461 100.123 194.359C99.4668 193.258 99.1387 192.109 99.1387 190.914C99.1387 189.719 99.4785 188.559 100.158 187.434ZM142.592 197.137C142.451 198.543 141.678 199.305 140.271 199.422C139.615 199.422 139.041 199.211 138.549 198.789C138.08 198.344 137.846 197.793 137.846 197.137V180.473C137.869 179.816 138.115 179.277 138.584 178.855C139.053 178.41 139.615 178.187 140.271 178.187H141.994H146.318H155.002C155.143 178.187 155.283 178.199 155.424 178.223H155.635C157.275 178.269 158.623 178.644 159.678 179.348C160.732 180.051 161.494 180.859 161.963 181.773C162.432 182.664 162.666 183.566 162.666 184.48C162.666 185.418 162.432 186.344 161.963 187.258C161.518 188.148 160.756 188.945 159.678 189.648C158.623 190.351 157.275 190.726 155.635 190.773H149.447C149.635 191.945 150.021 192.812 150.607 193.375C151.17 193.937 151.885 194.219 152.752 194.219H160.346C161.002 194.242 161.541 194.488 161.963 194.957C162.408 195.426 162.631 195.988 162.631 196.644C162.607 197.277 162.373 197.816 161.928 198.262C161.506 198.684 160.979 198.906 160.346 198.93H152.119C150.385 198.953 148.814 198.273 147.408 196.891C146.002 195.508 145.146 193.867 144.842 191.969C144.42 189.859 144.209 188.676 144.209 188.418C144.209 187.762 144.432 187.211 144.877 186.766C145.346 186.297 145.908 186.062 146.564 186.062H155.846C156.291 186.039 156.654 185.945 156.936 185.781C157.24 185.594 157.463 185.394 157.604 185.184C157.744 184.949 157.814 184.715 157.814 184.48C157.814 184.246 157.744 184.023 157.604 183.812C157.463 183.578 157.24 183.379 156.936 183.215C156.654 183.027 156.291 182.922 155.846 182.898H146.318H143.506C142.896 182.922 142.592 183.226 142.592 183.812V197.137ZM168.889 182.617C169.521 182.641 170.061 182.875 170.506 183.32C170.951 183.742 171.186 184.269 171.209 184.902V197.066C171.068 198.473 170.295 199.234 168.889 199.351C168.232 199.351 167.658 199.141 167.166 198.719C166.697 198.273 166.463 197.723 166.463 197.066V184.902C166.486 184.246 166.732 183.707 167.201 183.285C167.67 182.84 168.232 182.617 168.889 182.617ZM165.936 178.047C165.936 177.391 166.217 176.828 166.779 176.359C167.342 175.891 168.021 175.656 168.818 175.656C169.615 175.656 170.295 175.891 170.857 176.359C171.42 176.828 171.701 177.391 171.701 178.047C171.701 178.726 171.42 179.301 170.857 179.769C170.295 180.238 169.615 180.473 168.818 180.473C168.021 180.473 167.342 180.238 166.779 179.769C166.217 179.301 165.936 178.726 165.936 178.047ZM195.08 179.91C195.221 178.504 195.994 177.742 197.4 177.625C198.057 177.625 198.619 177.848 199.088 178.293C199.58 178.715 199.826 179.254 199.826 179.91V196.644C199.803 197.301 199.557 197.851 199.088 198.297C198.619 198.719 198.057 198.93 197.4 198.93H182.635C180.572 198.859 179.014 198.379 177.959 197.488C176.904 196.574 176.143 195.555 175.674 194.43C175.205 193.281 174.971 192.121 174.971 190.949C174.971 189.73 175.193 188.559 175.639 187.434C176.107 186.285 176.869 185.266 177.924 184.375C179.002 183.461 180.361 182.992 182.002 182.969H190.861C191.518 182.969 192.068 183.203 192.514 183.672C192.982 184.117 193.217 184.668 193.217 185.324C193.217 185.98 192.982 186.543 192.514 187.012C192.068 187.457 191.518 187.68 190.861 187.68H181.861C181.416 187.68 181.029 187.867 180.701 188.242C180.373 188.594 180.127 189.016 179.963 189.508C179.822 189.976 179.752 190.445 179.752 190.914C179.752 191.406 179.822 191.898 179.963 192.391C180.127 192.859 180.373 193.281 180.701 193.656C181.029 194.008 181.416 194.195 181.861 194.219H194.166C194.775 194.195 195.08 193.891 195.08 193.305V179.91ZM211.674 198.93C209.611 198.859 208.053 198.379 206.998 197.488C205.943 196.574 205.182 195.555 204.713 194.43C204.244 193.281 204.01 192.121 204.01 190.949C204.01 189.73 204.232 188.559 204.678 187.434C205.146 186.285 205.908 185.266 206.963 184.375C208.041 183.461 209.4 182.992 211.041 182.969H224.4C225.057 182.969 225.607 183.191 226.053 183.637C226.521 184.059 226.756 184.574 226.756 185.184C226.756 185.816 226.521 186.355 226.053 186.801C225.607 187.223 225.057 187.434 224.4 187.434H211.252C210.736 187.434 210.279 187.609 209.881 187.961C209.506 188.312 209.225 188.769 209.037 189.332C208.873 189.894 208.791 190.445 208.791 190.984C208.791 191.57 208.873 192.144 209.037 192.707C209.225 193.269 209.506 193.726 209.881 194.078C210.279 194.406 210.736 194.582 211.252 194.605H224.4C225.057 194.605 225.607 194.816 226.053 195.238C226.521 195.66 226.756 196.164 226.756 196.75C226.756 197.359 226.521 197.875 226.053 198.297C225.607 198.719 225.057 198.93 224.4 198.93H211.674ZM226.334 190.879C226.334 191.324 226.135 191.711 225.736 192.039C225.385 192.344 224.939 192.496 224.4 192.496H212.904C212.365 192.496 211.908 192.344 211.533 192.039C211.158 191.711 210.971 191.324 210.971 190.879C210.971 190.457 211.158 190.082 211.533 189.754C211.908 189.449 212.365 189.297 212.904 189.297H224.4C224.939 189.297 225.396 189.461 225.771 189.789C226.146 190.094 226.334 190.457 226.334 190.879Z" fill="url(#paint1_linear_6_1402)"/>
<defs>
<linearGradient id="paint0_linear_6_1402" x1="113.5" y1="0" x2="113.5" y2="150" gradientUnits="userSpaceOnUse">
<stop offset="0.350962" stop-color="#00C9B8"/>
<stop offset="1" stop-color="#3884FF"/>
</linearGradient>
<linearGradient id="paint1_linear_6_1402" x1="113.5" y1="168" x2="113.5" y2="215" gradientUnits="userSpaceOnUse">
<stop offset="0.350962" stop-color="#00C9B8"/>
<stop offset="1" stop-color="#3884FF"/>
</linearGradient>
</defs>
</svg>
