<svg width="16" height="17" viewBox="0 0 16 17" fill="none" xmlns="http://www.w3.org/2000/svg">
<path d="M12.147 5.94311C12.147 4.79972 11.6928 3.70316 10.8843 2.89466C10.0758 2.08617 8.97925 1.63196 7.83586 1.63196C6.69248 1.63196 5.59592 2.08617 4.78742 2.89466C3.97892 3.70316 3.52472 4.79972 3.52472 5.94311C3.52472 10.9728 1.36914 12.4098 1.36914 12.4098H14.3026C14.3026 12.4098 12.147 10.9728 12.147 5.94311Z" stroke="#00C9B8" stroke-width="1.5" stroke-linecap="round" stroke-linejoin="round"/>
<path d="M9.07887 15.2841C8.95254 15.5018 8.77123 15.6826 8.55307 15.8082C8.33492 15.9339 8.08758 16 7.83582 16C7.58406 16 7.33673 15.9339 7.11857 15.8082C6.90041 15.6826 6.7191 15.5018 6.59277 15.2841" stroke="#00C9B8" stroke-width="1.5" stroke-linecap="round" stroke-linejoin="round"/>
</svg>
