<svg width="20" height="22" viewBox="0 0 20 22" fill="none" xmlns="http://www.w3.org/2000/svg">
<path d="M10.0566 0.25C11.8943 0.249984 13.3501 0.250165 14.4893 0.403321C15.6615 0.560966 16.6101 0.893307 17.3584 1.6416C18.1067 2.38991 18.439 3.33845 18.5967 4.51074C18.7498 5.64991 18.75 7.10571 18.75 8.94336V9C18.75 9.41419 18.4142 9.74996 18 9.75C17.5858 9.75 17.25 9.41421 17.25 9C17.25 7.09325 17.2485 5.73859 17.1104 4.71094C16.9751 3.70488 16.721 3.12536 16.2979 2.70215C15.8746 2.27894 15.2952 2.02491 14.2891 1.88965C13.2614 1.75149 11.9068 1.75 10 1.75H9C7.09323 1.75 5.73858 1.75149 4.71094 1.88965C3.70486 2.02491 3.12536 2.27894 2.70215 2.70215C2.27897 3.12535 2.02492 3.70489 1.88965 4.71094C1.75149 5.73858 1.75002 7.09328 1.75 9V13C1.74998 14.9068 1.7515 16.2614 1.88965 17.2891C2.02491 18.2952 2.27894 18.8746 2.70215 19.2979C3.12536 19.7211 3.70486 19.9751 4.71094 20.1104C5.73859 20.2485 7.09325 20.25 9 20.25H11C11.4142 20.25 11.75 20.5858 11.75 21C11.75 21.4142 11.4142 21.75 11 21.75H8.94336C7.10569 21.75 5.64992 21.7498 4.51074 21.5967C3.33843 21.439 2.38991 21.1067 1.6416 20.3584C0.893301 19.6101 0.560957 18.6616 0.403321 17.4893C0.250174 16.3501 0.249969 14.8943 0.250001 13.0566V8.94336C0.250001 7.10569 0.250153 5.64992 0.403321 4.51074C0.560965 3.33845 0.89332 2.38991 1.6416 1.6416C2.38989 0.893316 3.33848 0.560965 4.51074 0.403321C5.6499 0.250166 7.10574 0.249984 8.94336 0.25H10.0566ZM16 10.25C18.0711 10.25 19.75 11.9289 19.75 14C19.75 15.1842 19.201 16.2405 18.3438 16.9277L19.2314 20.834C19.2931 21.1057 19.1991 21.3893 18.9873 21.5703C18.7754 21.7513 18.4804 21.7997 18.2217 21.6963L16 20.8076L13.7783 21.6963C13.5162 21.8011 13.2171 21.7497 13.0049 21.5635C12.793 21.3773 12.7036 21.0878 12.7734 20.8145L13.749 17C12.8386 16.3158 12.25 15.2265 12.25 14C12.25 11.9289 13.9289 10.25 16 10.25ZM16.9639 17.625C16.6563 17.7066 16.3332 17.75 16 17.75C15.7012 17.75 15.4105 17.7154 15.1318 17.6494L14.5928 19.7549L15.7217 19.3037C15.9004 19.2323 16.0996 19.2323 16.2783 19.3037L17.4521 19.7734L16.9639 17.625ZM16 11.75C14.7574 11.75 13.75 12.7574 13.75 14C13.75 14.8654 14.2387 15.6168 14.9551 15.9932C14.9576 15.9945 14.9604 15.9958 14.9629 15.9971C15.2733 16.1586 15.6259 16.25 16 16.25C16.4062 16.25 16.7873 16.1424 17.1162 15.9541C17.1214 15.951 17.1266 15.9473 17.1318 15.9443C17.8003 15.5543 18.25 14.8298 18.25 14C18.25 12.7574 17.2426 11.75 16 11.75ZM10 10.25C10.4142 10.25 10.75 10.5858 10.75 11C10.75 11.4142 10.4142 11.75 10 11.75H5.5C5.08579 11.75 4.75 11.4142 4.75 11C4.75 10.5858 5.08579 10.25 5.5 10.25H10ZM13.5 5.25C13.9142 5.25 14.25 5.58579 14.25 6C14.25 6.41421 13.9142 6.75 13.5 6.75H5.5C5.08579 6.75 4.75 6.41421 4.75 6C4.75 5.58579 5.08579 5.25 5.5 5.25H13.5Z" fill="#00C9B8"/>
</svg>
