<svg width="37" height="47" viewBox="0 0 37 47" fill="none" xmlns="http://www.w3.org/2000/svg">
<path d="M31.4063 24.5C32.8732 24.5 34.2801 25.0828 35.3174 26.1201C36.3548 27.1574 36.9375 28.5643 36.9375 30.0312V31.875C36.9375 39.1431 30.0788 46.625 18.5 46.625C6.92125 46.625 0.0625 39.1431 0.0625 31.875V30.0312C0.0625 28.5643 0.645255 27.1574 1.68257 26.1201C2.71988 25.0828 4.12677 24.5 5.59375 24.5H31.4063ZM31.4063 28.1875H5.59375C5.10476 28.1875 4.63579 28.3818 4.29002 28.7275C3.94425 29.0733 3.75 29.5423 3.75 30.0312V31.875C3.75 37.1776 9.0305 42.9375 18.5 42.9375C27.9695 42.9375 33.25 37.1776 33.25 31.875V30.0312C33.25 29.5423 33.0558 29.0733 32.71 28.7275C32.3642 28.3818 31.8952 28.1875 31.4063 28.1875ZM18.5 0.53125C21.1895 0.53125 23.7688 1.59963 25.6705 3.50137C27.5722 5.40311 28.6406 7.98241 28.6406 10.6719C28.6406 13.3613 27.5722 15.9406 25.6705 17.8424C23.7688 19.7441 21.1895 20.8125 18.5 20.8125C15.8105 20.8125 13.2312 19.7441 11.3295 17.8424C9.42776 15.9406 8.35938 13.3613 8.35938 10.6719C8.35938 7.98241 9.42776 5.40311 11.3295 3.50137C13.2312 1.59963 15.8105 0.53125 18.5 0.53125ZM18.5 4.21875C16.7885 4.21875 15.1471 4.89863 13.937 6.10883C12.7268 7.31902 12.0469 8.9604 12.0469 10.6719C12.0469 12.3834 12.7268 14.0247 13.937 15.2349C15.1471 16.4451 16.7885 17.125 18.5 17.125C20.2115 17.125 21.8529 16.4451 23.0631 15.2349C24.2732 14.0247 24.9531 12.3834 24.9531 10.6719C24.9531 8.9604 24.2732 7.31902 23.0631 6.10883C21.8529 4.89863 20.2115 4.21875 18.5 4.21875Z" fill="#999999"/>
</svg>
